<?xml version="1.0" encoding="utf-8"?>
<!DOCTYPE svg PUBLIC "-//W3C//DTD SVG 1.0//EN" "http://www.w3.org/TR/2001/REC-SVG-20010904/DTD/svg10.dtd">
<svg version="1.0" xmlns="http://www.w3.org/2000/svg" width="500px" height="500px" viewBox="0 0 500 500" preserveAspectRatio="xMidYMid meet">
 <g fill="#ffffff">
  <path d="M0 250 l0 -250 250 0 250 0 0 250 0 250 -250 0 -250 0 0 -250z m215.53 132.71 c0.54 -0.88 0.78 -4.20 0.98 -15.53 0.20 -7.91 0.44 -16.21 0.59 -18.41 l0.29 -4.05 1.86 0 c1.46 0 2 0.29 2.69 1.32 1.66 2.54 20.75 27.98 21.73 28.96 0.88 0.88 1.66 0.98 6.98 0.98 7.08 0 5.76 0.93 12.89 -9.03 16.75 -23.49 16.11 -22.71 18.26 -22.71 l1.90 0 0.05 5.03 c0.05 2.73 0.20 11.23 0.39 18.80 0.29 13.82 0.29 13.87 1.46 14.79 1.03 0.83 2.05 0.93 11.77 0.93 9.86 0 10.64 -0.05 11.47 -0.98 0.78 -0.88 0.83 -2.49 0.29 -30.37 -0.29 -16.21 -0.68 -30.86 -0.83 -32.52 -0.29 -3.42 -0.24 -3.32 -5.22 -7.42 -1.81 -1.46 -3.61 -3.13 -4 -3.76 -0.44 -0.63 -1.03 -1.12 -1.37 -1.12 -0.29 0 -2.54 0.98 -4.98 2.20 -3.32 1.71 -4.88 2.20 -6.69 2.20 -2.25 0 -2.34 -0.05 -2.34 -1.42 0 -0.78 0.98 -3.52 2.15 -6.05 l2.10 -4.59 4.25 -2.25 c3.47 -1.90 4.64 -2.29 6.79 -2.29 2.93 0 3.52 0.29 8.54 4.83 5.47 4.88 7.52 6.35 8.94 6.40 1.95 0 5.18 -2.39 10.79 -8.11 5.62 -5.76 7.71 -8.50 7.71 -10.21 0 -1.22 -2.15 -4.30 -7.13 -10.11 -4.30 -5.03 -5.08 -6.49 -5.08 -9.72 0 -2 0.49 -3.61 2.49 -7.96 1.37 -2.98 3.56 -8.59 4.88 -12.45 1.32 -3.86 2.73 -7.42 3.17 -7.91 1.17 -1.32 3.03 -1.76 11.57 -2.83 4.25 -0.54 8.30 -1.27 8.98 -1.61 3.42 -1.66 4.10 -5.42 3.13 -17.09 -0.98 -11.72 -1.32 -12.01 -13.87 -12.79 -11.82 -0.73 -11.08 -0.29 -14.94 -9.96 -1.07 -2.78 -3.22 -7.67 -4.69 -10.84 -2.98 -6.30 -3.66 -9.47 -2.69 -12.45 0.34 -0.98 2.59 -4.15 5.03 -6.98 5.52 -6.45 6.40 -8.01 5.52 -9.81 -1.66 -3.17 -12.99 -13.72 -17.77 -16.50 -2 -1.22 -2.20 -1.22 -3.66 -0.54 -0.88 0.44 -3.66 2.73 -6.20 5.08 -6.84 6.40 -7.08 6.54 -11.28 6.54 -3.17 0 -4 -0.24 -8.79 -2.44 -2.93 -1.32 -8.01 -3.32 -11.28 -4.44 -6.59 -2.20 -7.91 -2.88 -8.69 -4.39 -0.34 -0.54 -0.98 -4.54 -1.51 -8.89 -1.17 -10.11 -1.17 -10.21 -2.93 -11.87 l-1.46 -1.42 -11.23 -0.15 c-16.16 -0.20 -15.67 -0.63 -16.46 13.67 -0.29 5.03 -0.73 9.57 -1.03 10.06 -0.54 0.98 -1.61 1.51 -9.52 4.54 -2.88 1.12 -8.01 3.42 -11.33 5.13 -5.42 2.78 -6.35 3.13 -8.94 3.13 -2.64 0 -3.13 -0.20 -5.71 -2.15 -1.61 -1.17 -4.39 -3.47 -6.30 -5.13 -1.86 -1.71 -4.10 -3.42 -4.98 -3.81 -1.46 -0.73 -1.61 -0.73 -3.66 0.49 -2.83 1.66 -16.36 15.48 -16.80 17.19 -0.49 2.05 0.68 3.91 6.30 9.81 6.35 6.74 6.84 7.62 6.59 11.87 -0.15 2.49 -0.78 4.49 -2.54 8.59 -1.32 2.98 -3.22 8.01 -4.25 11.23 -1.07 3.22 -2.20 6.35 -2.49 6.93 -0.93 1.86 -4.10 2.98 -10.64 3.81 -7.32 0.93 -8.79 1.37 -10.30 2.98 -1.17 1.22 -1.17 1.37 -1.17 11.57 0 14.60 -0.10 14.50 12.21 15.72 7.23 0.73 9.81 1.46 10.84 3.13 0.34 0.49 1.37 3.08 2.39 5.76 2 5.42 4.49 10.55 5.96 12.35 0.83 1.03 1.12 1.12 2.15 0.63 1.51 -0.68 15.53 -15.43 15.53 -16.36 0 -0.39 -0.68 -2.64 -1.46 -5.08 -2.20 -6.40 -2.93 -11.47 -2.93 -20.07 0 -5.66 0.24 -8.79 0.98 -12.40 6.69 -32.76 37.89 -52.98 71.83 -46.53 25 4.74 44.78 25.15 48.58 50.10 1.03 6.74 0.68 19.38 -0.68 25.34 -1.95 8.20 -5.81 16.26 -10.94 22.80 -2.25 2.78 -2.59 3.03 -4.30 3.03 -1.86 0 -1.90 -0.05 -3.52 -3.52 -0.88 -1.95 -2.78 -5.18 -4.15 -7.13 -1.71 -2.29 -2.59 -4.05 -2.59 -4.98 0 -0.78 0.88 -3.03 1.95 -5.03 3.91 -7.23 5.71 -14.89 5.22 -22.02 -0.29 -4.35 -1.22 -8.59 -1.81 -8.59 -0.20 0 -4.39 4.30 -9.33 9.52 -8.45 8.94 -9.08 9.47 -10.79 9.52 -1.61 0 -2.05 -0.29 -4.74 -3.52 -2.59 -3.13 -2.98 -3.81 -2.98 -5.62 0 -1.86 0.20 -2.20 2.10 -3.52 5.03 -3.52 8.35 -8.50 8.25 -12.55 0 -2.64 -1.56 -5.57 -4.05 -7.71 -5.52 -4.69 -13.43 -4.05 -18.60 1.56 -3.81 4.15 -5.03 8.94 -3.52 14.26 0.44 1.76 0.88 4.05 0.88 5.08 0.05 1.81 -0.10 2 -2.34 3.32 -1.56 0.93 -2.88 1.37 -3.91 1.27 -1.42 -0.15 -1.61 -0.39 -2.64 -3.56 -1.95 -6.01 -3.52 -12.16 -3.52 -13.96 0 -1.61 0.59 -2.34 8.20 -9.77 4.49 -4.39 9.62 -9.33 11.47 -10.89 1.81 -1.61 3.27 -3.22 3.27 -3.56 0 -1.32 -2.54 -1.71 -9.03 -1.46 -7.52 0.29 -12.35 1.42 -18.26 4.25 -13.18 6.30 -21.83 17.82 -24.02 31.88 -0.98 6.15 0.63 15.23 3.71 21.34 0.68 1.32 1.22 3.13 1.22 4 0 1.76 1.27 0.39 -25.34 27.44 -8.40 8.59 -15.58 16.31 -15.92 17.09 -0.83 2 -0.10 3.76 3.47 8.45 3.42 4.44 12.01 12.74 13.67 13.13 0.73 0.20 1.76 0.05 2.49 -0.34 0.68 -0.39 10.74 -10.30 22.27 -22.02 l21 -21.39 2.20 0 c1.22 0 3.96 0.34 6.10 0.78 9.18 1.86 19.48 -0.05 28.03 -5.22 5.13 -3.08 6.84 -3.17 8.30 -0.54 1.71 3.03 2.59 6.98 2.73 12.11 l0.10 4.83 -2.93 1.56 c-3.96 2.15 -9.33 3.86 -14.89 4.83 -6.69 1.12 -17.92 0.73 -24.90 -0.98 l-5.13 -1.22 -8.64 8.69 c-5.81 5.81 -8.69 9.03 -8.69 9.72 0 1.61 3.91 3.32 13.92 5.96 2.15 0.59 4.44 1.37 5.03 1.76 1.86 1.22 2.88 4.35 3.96 11.87 0.54 3.86 1.32 7.52 1.76 8.15 1.22 1.90 3.42 2.69 9.38 3.27 l5.66 0.54 1.32 -1.56 c1.03 -1.22 1.66 -1.56 3.08 -1.56 l1.81 0 0 2.93 c0 3.47 -0.39 4.35 -4.44 10.01 -2.83 3.96 -3.08 4.15 -4.83 4.15 -1.66 0 -2.05 -0.29 -4.49 -3.27 l-2.64 -3.32 -4.30 -0.83 c-7.76 -1.56 -9.23 -3.32 -10.06 -12.40 -0.68 -7.28 -1.22 -9.28 -2.59 -10.16 -0.59 -0.39 -3.03 -1.07 -5.47 -1.46 -6.15 -1.12 -10.11 -2.59 -12.74 -4.79 l-2.29 -1.90 -4 3.81 c-2.25 2.10 -5.27 4.93 -6.79 6.25 l-2.73 2.49 0 2.88 c0 1.61 -0.34 14.16 -0.73 27.83 -0.93 32.32 -0.93 30.32 0.24 31.49 0.93 0.93 1.61 0.98 11.96 0.98 10.84 0 10.99 0 11.67 -1.07z"/>
  <path d="M247.71 247.07 c-0.83 -0.29 -2.10 -1.17 -2.78 -2 -1.12 -1.27 -1.27 -1.95 -1.27 -4.88 0 -3.66 0.68 -5.62 2.83 -7.86 0.98 -1.07 1.71 -1.37 3.27 -1.37 1.90 0 2.10 0.15 4.54 3.61 1.42 1.95 3.22 4.20 4 4.93 1.17 1.12 1.46 1.81 1.46 3.52 0 1.95 -0.10 2.15 -2.05 3.13 -2.39 1.22 -7.52 1.66 -10.01 0.93z"/>
  <path d="M254.44 213.04 c-0.29 -1.03 -0.54 -2.88 -0.54 -4.10 0 -3.08 1.07 -4.35 4 -4.69 1.86 -0.20 2.39 -0.10 3.32 0.83 0.93 0.93 1.07 1.46 0.88 3.71 -0.20 2.20 -0.54 2.98 -1.86 4.35 -1.32 1.37 -2.05 1.71 -3.47 1.71 -1.71 0 -1.90 -0.15 -2.34 -1.81z"/>
 </g>
 <g fill="#626774">
  <path d="M248.29 331.20 c-6.54 -0.49 -8.15 -0.78 -9.03 -1.51 -0.83 -0.68 -1.17 -2.05 -1.95 -7.42 -1.61 -11.33 -2.98 -13.62 -9.33 -15.58 -2 -0.59 -5.81 -1.81 -8.50 -2.64 l-4.88 -1.56 -0.15 -1.86 c-0.15 -1.76 0.10 -2.10 7.28 -9.62 l7.42 -7.81 2.54 0 c1.37 0 4.44 0.44 6.88 0.98 2.49 0.59 7.08 1.12 10.69 1.32 7.42 0.29 12.55 -0.49 18.95 -2.88 2.20 -0.83 5.27 -1.61 6.84 -1.71 l2.78 -0.24 0 1.95 c0 3.56 -2.98 10.25 -10.21 23 -1.86 3.32 -4.35 8.25 -5.52 10.99 -1.12 2.69 -2.88 6.30 -3.91 7.96 -0.98 1.61 -2.25 3.91 -2.83 4.98 -1.07 2.20 -1.07 2.15 -7.08 1.66z"/>
  <path d="M308.74 301.95 c-8.74 -7.71 -9.18 -7.91 -13.33 -5.81 -1.32 0.68 -3.08 1.22 -3.91 1.22 -1.32 0 -1.46 -0.15 -1.46 -1.46 0 -0.78 0.39 -2.49 0.93 -3.76 2.34 -6.01 3.08 -12.70 2.29 -21 l-0.44 -4.49 3.08 -3.32 c8.54 -9.13 13.87 -21.97 14.94 -36.08 0.88 -11.91 -4.35 -28.27 -12.50 -39.21 -5.86 -7.86 -15.87 -16.06 -24.22 -19.87 -3.86 -1.76 -11.18 -4.15 -15.58 -5.13 -4.39 -0.98 -16.21 -0.88 -21.09 0.20 -19.73 4.25 -35.16 16.11 -43.99 33.79 -7.18 14.45 -8.20 29.20 -2.98 44.82 2.39 7.23 2.54 6.88 -5.57 15.19 -6.49 6.64 -7.08 7.13 -8.79 7.13 -1.66 0 -1.90 -0.20 -2.98 -2.29 -0.63 -1.32 -2.20 -4.98 -3.47 -8.20 -1.27 -3.22 -2.73 -6.54 -3.27 -7.42 -1.71 -2.83 -5.18 -3.86 -16.65 -4.83 -6.20 -0.54 -5.86 0.20 -6.10 -14.21 -0.20 -10.50 -0.10 -12.21 0.54 -12.74 0.39 -0.34 3.71 -1.07 7.32 -1.56 7.81 -1.12 8.84 -1.32 11.13 -2.49 2.44 -1.22 3.17 -2.54 5.57 -9.91 1.12 -3.52 3.22 -9.13 4.64 -12.50 1.42 -3.37 2.59 -6.74 2.54 -7.47 -0.05 -2 -1.71 -4.30 -7.86 -10.79 l-5.42 -5.66 0 -2.93 0 -2.93 4.54 -4.83 c2.44 -2.69 6.10 -6.30 8.06 -8.06 3.32 -3.03 3.71 -3.22 5.91 -3.22 2.59 0 2.64 0 9.33 5.66 5.47 4.59 7.67 6.05 9.23 6.05 0.73 0 4.59 -1.61 8.64 -3.61 6.69 -3.27 9.62 -4.54 16.02 -6.88 3.13 -1.12 5.52 -3.32 6.10 -5.52 0.29 -1.03 0.73 -5.76 1.03 -10.55 0.29 -4.83 0.63 -8.94 0.78 -9.18 0.15 -0.20 6.49 -0.39 14.16 -0.39 l13.87 0 0.49 1.12 c0.24 0.59 0.78 4.49 1.22 8.64 0.44 4.15 1.03 8.40 1.32 9.42 0.88 2.88 3.03 4.39 9.28 6.45 3.03 1.03 8.06 2.93 11.13 4.25 9.23 4 9.08 3.96 11.43 2.93 1.07 -0.54 4.69 -3.37 8.01 -6.35 5.86 -5.37 6.01 -5.47 8.35 -5.47 1.76 0 2.83 0.34 4.25 1.27 3.17 2.15 10.06 8.20 13.28 11.62 2.73 2.93 3.03 3.47 3.03 5.32 0 2.49 -0.68 3.61 -5.76 9.57 -2.15 2.54 -4.39 5.62 -5.03 6.84 -1.32 2.69 -1.22 3.13 2.83 12.01 1.61 3.52 3.86 8.64 5.03 11.47 2.39 5.76 4.20 7.96 7.13 8.74 1.07 0.29 5.66 0.73 10.16 1.03 4.54 0.29 8.40 0.63 8.69 0.78 0.98 0.63 1.32 2.93 1.86 13.28 0.59 11.38 0.34 14.40 -1.37 14.94 -0.49 0.15 -4.39 0.73 -8.79 1.27 -8.64 1.07 -11.23 1.86 -12.99 3.91 -0.63 0.73 -2.25 4.64 -3.61 8.69 -1.37 4 -3.61 9.77 -4.93 12.79 -1.37 2.98 -2.49 5.91 -2.49 6.45 0 1.71 1.42 4.05 4.93 8.25 7.52 8.94 7.28 8.54 7.28 11.52 0 2.20 -0.24 3.08 -1.32 4.49 -1.95 2.64 -8.35 9.18 -11.04 11.33 -2.20 1.76 -2.64 1.90 -5.47 1.90 l-3.13 0 -4.79 -4.20z"/>
 </g>
 <g fill="#f89a09">
  <path d="M191.70 382.86 c-0.15 -0.20 -0.05 -8.20 0.20 -17.68 0.24 -9.52 0.59 -23.83 0.78 -31.84 l0.34 -14.50 3.22 -2.64 c1.76 -1.46 4.20 -3.66 5.42 -4.88 1.95 -2.05 2.39 -2.25 4.44 -2.25 1.42 0 2.49 0.29 2.88 0.73 1.76 2.10 11.47 5.62 15.58 5.62 2.59 0 2.93 0.73 3.71 7.81 1.32 11.91 3.37 14.11 15.19 16.41 0.63 0.10 2.20 1.76 3.91 4.10 1.51 2.15 2.93 3.91 3.08 3.91 0.39 -0.05 7.52 -10.11 8.59 -12.21 0.68 -1.32 0.98 -3.37 1.22 -8.54 0.29 -5.71 0.59 -7.42 1.66 -10.40 1.27 -3.42 5.47 -11.57 9.72 -18.85 9.38 -16.16 10.21 -28.66 2.59 -38.82 -1.07 -1.46 -1.27 -1.56 -1.27 -0.68 0 2.10 -9.18 6.74 -16.21 8.15 -4.88 1.03 -13.09 0.98 -18.85 -0.05 l-4.64 -0.83 -21.92 22.07 -21.97 22.07 -2.88 0 -2.88 0 -5.27 -5.22 c-2.88 -2.93 -6.15 -6.69 -7.32 -8.40 -1.90 -2.83 -2.05 -3.37 -2.05 -6.25 l0 -3.17 18.95 -19.38 c10.40 -10.64 19.73 -20.26 20.75 -21.39 l1.90 -1.95 -1.56 -3.08 c-4.15 -8.25 -4.98 -21.09 -1.90 -30.76 1.17 -3.81 3.66 -8.50 6.45 -12.11 3.96 -5.13 12.11 -10.64 19.09 -12.99 4.88 -1.66 18.99 -2.93 21.48 -1.95 0.49 0.20 0.78 0.88 0.78 1.90 0 1.22 -0.39 1.95 -1.61 2.93 -3.13 2.64 -19.43 18.46 -19.92 19.34 -0.34 0.73 -0.24 1.95 0.54 4.74 0.93 3.47 4.44 14.75 4.74 15.19 0.05 0.10 0.93 -0.49 1.95 -1.27 1.03 -0.83 2.78 -2.05 3.91 -2.73 l2 -1.27 -0.93 -2.98 c-1.03 -3.37 -1.22 -9.13 -0.39 -12.35 0.73 -3.08 3.37 -6.40 6.10 -7.67 1.95 -0.98 3.17 -1.17 7.23 -1.17 5.76 -0.05 8.64 0.93 10.60 3.66 1.07 1.51 1.17 2.15 1.17 6.88 0 4.98 -0.05 5.27 -1.46 7.28 -1.32 1.90 -4.05 4.35 -7.81 7.03 l-1.37 1.03 4 4.98 c2.20 2.73 4.20 5.08 4.44 5.22 0.24 0.15 1.37 -0.78 2.54 -2.05 1.17 -1.27 4.83 -5.18 8.20 -8.69 5.96 -6.15 6.15 -6.35 8.35 -6.49 l2.25 -0.15 0.34 3.03 c0.39 3.81 0.39 8.94 0 11.28 l-0.34 1.86 -3.47 0.10 -3.47 0.05 2.93 0.29 c2.88 0.29 2.93 0.29 3.08 1.90 0.20 1.95 -0.93 5.57 -3.17 10.01 -1.37 2.78 -1.81 3.27 -2.88 3.27 l-1.27 0 1.81 2 c2.64 2.93 6.40 8.89 7.57 12.01 4.74 12.70 3.52 25.88 -3.96 41.50 -3.56 7.52 -4 8.89 -3.08 9.28 0.83 0.29 3.71 -0.73 8.79 -3.13 4.69 -2.20 6.25 -2.15 8.98 0.39 1.22 1.07 3.13 2.69 4.25 3.52 l2 1.56 0.29 5.86 c0.49 10.50 1.32 61.28 1.03 61.77 -0.20 0.29 -4.74 0.49 -11.91 0.49 l-11.67 0 -0.29 -1.07 c-0.15 -0.63 -0.29 -5.42 -0.34 -10.64 -0.05 -5.22 -0.20 -14.55 -0.39 -20.65 l-0.29 -11.13 -3.13 4.30 c-1.76 2.34 -5.81 7.91 -9.08 12.35 -3.27 4.44 -7.67 10.55 -9.77 13.57 l-3.86 5.47 -7.47 0 -7.47 0 -13.18 -17.63 c-7.28 -9.67 -13.18 -17.53 -13.23 -17.43 -0.05 0.10 -0.29 9.72 -0.63 21.39 l-0.54 21.24 -11.82 0.15 c-6.49 0.05 -11.91 -0.10 -12.06 -0.34z m59.13 -126.37 c-0.98 -0.10 -2.54 -0.10 -3.42 0 -0.83 0.10 0 0.20 1.86 0.20 1.90 0 2.59 -0.10 1.56 -0.20z m16.50 -6.01 c-0.15 -0.24 -0.59 -0.49 -0.98 -0.49 -0.39 0 -0.83 0.24 -0.98 0.49 -0.20 0.29 0.24 0.49 0.98 0.49 0.73 0 1.17 -0.20 0.98 -0.49z m-11.91 -3.13 c0.93 -0.39 2.49 -1.42 3.52 -2.34 l1.86 -1.61 -3.27 -3.91 c-1.76 -2.15 -4.10 -5.18 -5.18 -6.69 -1.03 -1.56 -2.10 -2.83 -2.39 -2.83 -0.83 0 -4.74 4.25 -5.76 6.30 -0.59 1.07 -1.03 2.64 -1.03 3.52 0 5.57 6.88 9.81 12.26 7.57z m-23.14 -6.98 c-0.10 -0.78 -0.20 -0.24 -0.20 1.07 0 1.37 0.10 1.95 0.20 1.37 0.10 -0.63 0.10 -1.71 0 -2.44z m26.42 -26.37 c1.22 -0.98 2.59 -2.73 3.13 -3.91 0.83 -1.90 0.88 -2.20 0.15 -3.56 -0.93 -1.81 -3.03 -2.98 -4.44 -2.44 -0.54 0.24 -1.61 1.12 -2.34 2 -1.17 1.37 -1.32 1.95 -1.17 3.86 0.24 2.29 1.56 5.86 2.15 5.86 0.20 0 1.32 -0.83 2.54 -1.81z"/>
 </g>
 <g fill="#020101">
  <path d="M190.43 384.28 c-1.22 -1.22 -1.22 -0.93 -0.24 -34.42 0.39 -13.67 0.73 -26.22 0.73 -27.83 l0 -2.88 2.73 -2.49 c1.51 -1.32 4.79 -4.35 7.28 -6.69 2.49 -2.39 4.74 -4.30 4.98 -4.30 0.20 0 1.66 1.07 3.22 2.34 3.17 2.69 6.69 4.05 13.28 5.27 2.44 0.39 4.88 1.07 5.47 1.46 1.37 0.88 1.90 2.88 2.59 10.16 0.83 9.08 2.29 10.84 10.06 12.40 l4.30 0.83 2.54 3.17 c1.42 1.71 2.78 3.22 3.03 3.32 0.49 0.15 5.81 -7.03 7.18 -9.62 0.78 -1.56 1.03 -4.44 0.34 -4.44 -0.24 0 -0.88 0.68 -1.46 1.46 -1.03 1.37 -1.32 1.46 -4.39 1.46 -4.64 0 -11.23 -0.88 -12.84 -1.76 -2.29 -1.17 -2.83 -2.64 -3.91 -10.01 -1.07 -7.52 -2.10 -10.64 -3.96 -11.87 -0.59 -0.39 -3.56 -1.37 -6.54 -2.20 -10.30 -2.78 -12.89 -4.15 -12.89 -6.79 0 -1.95 0.78 -2.93 9.72 -11.96 6.20 -6.25 8.40 -8.15 9.33 -8.15 0.68 0 3.66 0.54 6.59 1.27 13.09 3.03 26.12 1.71 36.77 -3.66 1.71 -0.83 3.17 -1.86 3.32 -2.20 0.44 -1.12 -0.68 -8.35 -1.76 -11.08 -1.81 -4.79 -1.76 -4.79 -6.45 -1.95 -2.25 1.32 -6.15 3.13 -8.69 4 -4.10 1.37 -5.42 1.61 -11.38 1.81 -5.18 0.20 -7.76 0 -11.38 -0.63 l-4.69 -0.93 -21.83 22.07 c-15.38 15.63 -22.17 22.17 -23.14 22.36 -3.03 0.68 -5.13 -0.59 -11.33 -6.84 -6.25 -6.25 -9.77 -10.99 -10.30 -13.82 -0.73 -3.76 -0.20 -4.44 16.31 -21.24 8.50 -8.69 17.72 -18.12 20.51 -20.95 l5.08 -5.22 -1.27 -2.44 c-2.10 -4.15 -3.76 -10.64 -4.05 -15.97 -0.63 -11.62 3.22 -22.27 11.23 -30.81 5.37 -5.76 13.04 -10.30 21.09 -12.45 3.27 -0.88 5.32 -1.07 12.50 -1.12 7.86 -0.05 8.74 0.05 9.67 0.88 1.76 1.61 1.27 2.64 -3.22 6.79 -2.39 2.20 -7.76 7.42 -12.01 11.57 l-7.76 7.62 0.83 3.17 c0.88 3.37 3.56 12.11 3.96 12.70 0.39 0.63 4.83 -2.29 4.69 -3.03 -0.10 -0.39 -0.54 -2 -0.93 -3.61 -0.98 -3.81 -0.68 -9.47 0.68 -12.55 2.49 -5.57 7.28 -8.74 13.62 -9.08 4.88 -0.24 7.96 0.63 10.89 3.13 2.98 2.59 4.15 5.08 4.15 9.23 0.05 5.52 -2.64 10.01 -8.35 13.96 -1.17 0.83 -2.10 1.71 -2.10 2.05 0 0.78 5.86 7.76 6.35 7.57 0.20 -0.10 4.44 -4.44 9.47 -9.72 4.98 -5.32 9.42 -9.77 9.86 -9.91 2.39 -0.93 3.56 2.34 4 10.79 0.39 8.84 -1.17 15.87 -5.22 23.39 l-1.95 3.61 2.54 3.56 c1.42 1.95 3.27 5.13 4.15 7.08 0.93 1.90 1.81 3.52 2.05 3.52 0.68 0 5.13 -5.91 7.52 -10.01 4.74 -8.15 7.03 -16.31 7.42 -26.61 0.49 -11.28 -1.61 -20.65 -6.74 -30.27 -9.77 -18.51 -27.05 -30.03 -48.14 -32.28 -16.31 -1.71 -34.23 4.64 -46.24 16.41 -11.52 11.23 -17.82 26.07 -17.82 41.85 0 7.71 0.54 10.89 2.98 18.75 1.32 4.05 1.95 6.84 1.76 7.57 -0.49 1.71 -15.43 16.94 -17.04 17.33 -3.13 0.73 -5.52 -2.39 -9.18 -12.01 -3.71 -9.62 -3.47 -9.47 -13.92 -10.50 -12.45 -1.27 -12.21 -0.88 -12.21 -17.19 0 -11.77 0 -11.77 1.17 -13.04 1.51 -1.61 2.98 -2.05 10.30 -2.98 6.54 -0.83 9.72 -1.95 10.64 -3.81 0.29 -0.59 1.42 -3.71 2.49 -6.93 1.03 -3.22 2.93 -8.25 4.20 -11.23 2.73 -6.35 3.13 -8.30 1.95 -10.45 -0.44 -0.88 -3.22 -4.15 -6.10 -7.23 -9.13 -9.67 -9.13 -10.55 1.12 -21.04 7.86 -8.06 10.30 -9.86 13.23 -9.86 2.34 0 3.81 0.83 8.11 4.64 5.32 4.74 8.79 7.08 10.30 7.08 0.78 0 4.15 -1.42 7.47 -3.13 3.32 -1.71 8.45 -4 11.33 -5.13 7.91 -3.03 8.98 -3.56 9.52 -4.54 0.29 -0.49 0.73 -5.03 1.03 -10.06 0.78 -14.45 0.05 -13.87 17.92 -13.67 l12.70 0.15 1.46 1.42 c1.76 1.66 1.76 1.76 2.93 11.87 0.54 4.35 1.17 8.35 1.51 8.89 0.78 1.51 2.10 2.20 8.69 4.39 3.27 1.12 8.35 3.13 11.28 4.44 8.25 3.81 8.84 3.71 16.89 -3.86 5.37 -5.03 6.74 -5.91 9.33 -5.91 2.49 0 5.22 1.71 11.87 7.57 9.91 8.64 11.62 11.57 9.42 15.92 -0.49 0.98 -2.78 3.96 -5.13 6.64 -2.34 2.69 -4.59 5.71 -4.98 6.69 -0.98 2.29 -0.59 3.76 2.88 11.08 1.42 3.08 3.42 7.67 4.44 10.21 3.61 9.23 3.03 8.84 14.75 9.57 12.55 0.78 12.89 1.07 13.87 12.70 0.78 9.57 0.49 16.36 -0.83 18.12 -1.56 2.10 -2.93 2.54 -11.28 3.61 -8.54 1.07 -10.40 1.51 -11.57 2.83 -0.44 0.49 -1.86 4.05 -3.17 7.91 -1.32 3.86 -3.52 9.47 -4.88 12.45 -1.37 2.98 -2.49 5.91 -2.49 6.49 0 1.71 1.37 3.91 5.08 8.25 6.30 7.42 7.13 8.69 7.13 11.57 0 3.37 -1.37 5.37 -8.69 12.55 -6.45 6.40 -9.18 8.06 -12.21 7.47 -2.10 -0.39 -3.56 -1.37 -8.15 -5.52 -4.69 -4.30 -7.03 -5.96 -8.40 -5.96 -0.63 0 -3.03 1.03 -5.32 2.29 l-4.25 2.25 -2.05 4.44 c-1.61 3.52 -1.90 4.49 -1.32 4.59 0.39 0.10 3.17 -1.07 6.20 -2.59 l5.52 -2.83 1.51 1.07 c0.83 0.59 1.51 1.27 1.51 1.46 0 0.24 1.56 1.71 3.52 3.27 5.27 4.35 5.18 4.20 5.47 7.62 0.15 1.66 0.54 16.99 0.83 33.98 0.54 29.49 0.54 30.91 -0.29 31.84 -0.83 0.93 -1.51 0.98 -12.94 0.98 -11.18 0 -12.21 -0.05 -13.23 -0.93 -1.17 -0.93 -1.17 -0.98 -1.46 -14.79 -0.20 -7.57 -0.34 -16.06 -0.39 -18.80 -0.05 -2.78 -0.24 -5.03 -0.49 -5.03 -0.44 0 -4.98 6.15 -16.80 22.71 -7.23 10.06 -5.57 9.03 -14.26 9.03 -5.13 0 -7.62 -0.20 -8.20 -0.59 -0.63 -0.54 -20.12 -26.37 -22.46 -29.83 -0.39 -0.59 -0.88 -0.93 -1.07 -0.73 -0.24 0.20 -0.59 8.54 -0.83 18.55 -0.39 14.40 -0.63 18.46 -1.17 19.34 -0.68 1.07 -0.78 1.07 -13.13 1.07 -11.82 0 -12.50 -0.05 -13.43 -0.98z m24.22 -24.56 c0.54 -21.29 0.73 -23.44 2.10 -22.61 0.24 0.20 6.64 8.54 14.16 18.60 l13.72 18.31 6.01 0 6.01 0 3.86 -5.47 c3.52 -5.03 10.74 -14.94 19.38 -26.66 3.42 -4.64 4.59 -5.62 5.27 -4.49 0.20 0.34 0.54 9.77 0.68 20.95 0.20 11.18 0.44 21.04 0.59 21.92 l0.24 1.56 10.21 0 c5.62 0 10.30 -0.20 10.45 -0.44 0.29 -0.49 -0.54 -49.22 -0.98 -58.89 l-0.29 -5.86 -3.61 -2.88 c-2 -1.61 -3.61 -3.08 -3.61 -3.27 0 -1.03 -1.95 -0.78 -4.83 0.59 -13.67 6.49 -15.43 5.03 -9.33 -7.91 7.28 -15.53 8.74 -25.78 5.32 -36.87 -1.95 -6.35 -4.39 -10.11 -12.40 -19.24 -3.37 -3.81 -5.52 -6.64 -5.32 -6.98 1.07 -1.90 5.47 -7.32 6.54 -8.01 0.78 -0.54 2.64 -0.88 5.22 -1.03 l3.96 -0.20 0.34 -2.44 c0.20 -1.37 0.20 -4.30 0 -6.59 -0.29 -3.47 -0.49 -4.10 -1.12 -3.96 -0.83 0.15 -10.64 10.06 -15.82 16.02 l-2.78 3.13 -1.32 -1.17 c-2 -1.90 -8.30 -9.81 -9.23 -11.67 -0.44 -0.88 -0.63 -1.81 -0.39 -1.95 0.20 -0.20 1.86 -1.42 3.66 -2.64 3.76 -2.64 6.49 -5.66 7.28 -8.06 0.83 -2.59 0.34 -6.93 -1.03 -8.84 -1.71 -2.44 -4.88 -3.71 -9.13 -3.61 -4.59 0.05 -7.42 1.42 -9.67 4.49 -3.03 4.10 -3.42 8.59 -1.37 14.79 l1.32 3.96 -1.22 0.93 c-0.63 0.49 -2.93 2.20 -5.08 3.76 -7.18 5.18 -9.86 11.57 -7.76 18.55 1.56 5.27 6.45 8.69 13.13 9.18 4.88 0.39 9.28 -0.98 14.45 -4.54 2.20 -1.46 4.35 -2.64 4.79 -2.54 1.12 0.24 9.03 9.86 10.74 13.09 2.39 4.54 3.17 7.91 3.13 13.92 -0.05 4.35 -0.29 6.20 -1.32 9.72 -1.46 4.88 -3.61 9.77 -6.49 14.75 -4.25 7.28 -8.45 15.43 -9.72 18.85 -1.07 2.98 -1.37 4.69 -1.66 10.40 -0.24 5.18 -0.54 7.23 -1.22 8.54 -1.37 2.64 -8.59 12.60 -9.33 12.89 -1.27 0.49 -2.15 -0.29 -5.18 -4.39 -1.76 -2.44 -3.37 -4.20 -4 -4.30 -11.82 -2.29 -13.87 -4.49 -15.19 -16.41 -0.78 -7.08 -1.12 -7.81 -3.71 -7.81 -4.10 0 -13.82 -3.52 -15.58 -5.62 -1.03 -1.22 -2.15 -0.83 -4.39 1.51 -1.22 1.22 -3.66 3.42 -5.42 4.83 l-3.22 2.69 -0.54 25.98 c-0.34 14.31 -0.73 27.93 -0.88 30.27 -0.15 2.34 -0.15 4.49 0.05 4.79 0.20 0.34 3.86 0.44 10.64 0.39 l10.35 -0.15 0.54 -21.88z m39.26 -31.64 c0.59 -1.07 1.86 -3.37 2.83 -4.98 1.03 -1.66 2.78 -5.27 3.91 -7.96 1.17 -2.73 3.66 -7.67 5.52 -10.99 5.96 -10.45 10.21 -19.48 10.21 -21.58 0 -0.63 -2.05 -0.20 -6.69 1.56 -2.20 0.78 -5.81 1.81 -8.06 2.25 -7.23 1.37 -19.19 0.83 -26.76 -1.22 -3.71 -1.03 -3.76 -1.03 -11.67 7.32 -4.10 4.30 -7.32 8.01 -7.13 8.30 0.15 0.24 2.54 1.17 5.27 2 2.73 0.83 6.49 1.95 8.35 2.54 6.05 1.86 7.47 4.25 9.08 15.48 0.78 5.37 1.12 6.74 1.95 7.42 0.88 0.73 2.49 1.03 9.03 1.51 1.07 0.10 2.25 0.20 2.54 0.24 0.34 0.05 1.07 -0.78 1.61 -1.90z m-44.19 -41.89 c12.45 -12.50 22.31 -22.07 23 -22.22 0.63 -0.20 3.42 0.15 6.15 0.73 5.81 1.17 13.67 1.07 18.70 -0.29 3.13 -0.83 10.99 -4.49 12.84 -5.96 l1.07 -0.88 -2.25 -2.59 c-1.22 -1.37 -2.54 -2.54 -2.93 -2.54 -0.34 0 -2.10 0.88 -3.86 1.95 -5.18 3.17 -8.40 4.05 -14.16 3.81 -4.05 -0.15 -5.42 -0.44 -7.91 -1.56 -4 -1.81 -7.42 -5.42 -8.89 -9.33 -2.20 -5.81 -0.63 -13.72 3.76 -18.80 l1.46 -1.71 -0.93 -2.44 c-1.76 -4.83 -4.35 -14.50 -4.35 -16.46 0 -1.81 0.34 -2.29 3.61 -5.71 2 -2.05 6.93 -6.79 10.99 -10.55 4.79 -4.44 7.13 -6.93 6.74 -7.18 -1.51 -0.98 -13.92 0.24 -18.70 1.86 -6.98 2.34 -15.14 7.86 -19.09 12.99 -9.23 11.96 -10.84 27.44 -4.25 40.53 0.93 1.81 1.66 3.71 1.66 4.25 0 0.59 -7.86 8.98 -21 22.46 -24.02 24.61 -22.56 22.46 -18.95 27.93 1.17 1.71 4.44 5.47 7.32 8.40 4.30 4.30 5.52 5.22 6.69 5.22 1.27 0 4.35 -2.88 23.24 -21.92z m110.94 16.60 c2.69 -2.15 9.08 -8.69 11.04 -11.33 2.34 -3.13 2.29 -3.27 -5.96 -13.09 -6.10 -7.28 -6.35 -9.08 -2.49 -17.58 1.37 -3.03 3.61 -8.84 4.98 -12.84 1.37 -4.05 2.98 -7.96 3.61 -8.69 1.76 -2.05 4.35 -2.83 12.99 -3.91 4.39 -0.54 8.30 -1.12 8.79 -1.27 1.56 -0.49 1.86 -3.22 1.32 -13.33 -0.29 -5.27 -0.78 -10.11 -1.07 -10.79 -0.63 -1.32 0.59 -1.12 -14.60 -2.39 -8.11 -0.68 -8.84 -1.32 -13.09 -11.62 -1.42 -3.42 -3.76 -8.79 -5.18 -11.91 -4.15 -8.89 -3.81 -10.55 3.76 -19.63 4.10 -4.88 5.32 -6.59 5.32 -7.62 0 -0.83 -5.76 -6.74 -10.25 -10.55 -5.13 -4.35 -7.67 -6.10 -8.84 -6.10 -0.49 0 -3.61 2.44 -6.88 5.47 -6.59 5.96 -9.18 7.47 -12.30 7.13 -1.12 -0.15 -5.08 -1.56 -8.84 -3.17 -3.76 -1.61 -9.33 -3.76 -12.35 -4.79 -6.25 -2.05 -8.40 -3.56 -9.28 -6.45 -0.29 -1.03 -0.88 -5.27 -1.32 -9.42 -0.44 -4.15 -0.98 -8.06 -1.22 -8.64 -0.49 -1.12 -0.49 -1.12 -12.89 -1.12 -6.84 0 -12.55 0.20 -12.70 0.39 -0.15 0.24 -0.49 4.35 -0.78 9.18 -0.29 4.79 -0.73 9.52 -1.03 10.55 -0.59 2.20 -2.98 4.39 -6.10 5.52 -6.40 2.34 -9.33 3.61 -16.02 6.88 -8.11 4 -9.67 4.44 -12.26 3.61 -1.66 -0.54 -3.22 -1.71 -12.11 -8.98 -1.86 -1.51 -3.76 -2.73 -4.25 -2.73 -1.17 0 -6.69 4.93 -12.60 11.28 -6.01 6.45 -6.01 6.15 0.93 13.43 6.59 6.93 7.71 8.59 8.06 11.72 0.20 2.05 -0.05 3.13 -2.05 7.76 -1.22 2.98 -3.42 8.84 -4.88 13.04 -2.98 8.74 -3.56 9.86 -6.01 11.08 -2.29 1.17 -3.32 1.37 -11.13 2.49 -3.61 0.49 -6.93 1.22 -7.32 1.56 -0.63 0.54 -0.73 2.10 -0.54 11.33 0.24 12.70 0 12.21 6.10 12.70 11.47 0.98 14.94 2 16.65 4.83 0.54 0.88 2 4.20 3.27 7.42 2.59 6.49 4.49 10.50 4.98 10.50 0.49 0 14.31 -14.21 14.31 -14.70 0 -0.20 -0.63 -2.29 -1.42 -4.69 -2.20 -6.59 -3.03 -11.04 -3.32 -18.21 -1.07 -27.34 16.60 -52.78 42.63 -61.28 7.28 -2.39 11.08 -2.93 20.21 -2.93 9.13 0 11.33 0.34 18.99 2.78 9.86 3.13 17.48 7.67 24.90 14.79 8.01 7.67 13.33 16.11 16.85 26.71 6.88 20.56 2.05 44.73 -11.87 59.62 l-3.08 3.22 0.59 4.54 c0.88 6.64 -0.10 14.94 -2.49 21 l-0.88 2.29 3.13 -1.51 c5.18 -2.39 6.40 -1.90 15.53 6.15 5.76 5.08 6.74 5.27 10.45 2.29z m-36.91 -59.23 c1.95 -3.86 3.47 -8.15 3.08 -8.79 -0.20 -0.29 -1.46 -0.39 -2.98 -0.29 -2.83 0.24 -4.64 1.51 -6.59 4.69 l-1.03 1.66 2.88 2.88 c1.56 1.56 2.93 2.88 2.98 2.88 0.10 0 0.83 -1.37 1.66 -3.03z"/>
  <path d="M247.90 249.02 c-8.45 -2.54 -8.35 -14.75 0.10 -20.12 1.22 -0.73 2.44 -1.37 2.73 -1.37 0.34 0 1.56 1.46 2.78 3.32 1.22 1.81 4 5.42 6.15 8.01 l4 4.69 -2.54 2.29 c-1.37 1.22 -3.27 2.59 -4.20 2.98 -1.81 0.73 -6.84 0.83 -9.03 0.20z m8.50 -4.39 c1.03 -0.54 1.90 -1.27 1.90 -1.61 0 -0.34 -0.63 -1.27 -1.46 -2.05 -0.78 -0.73 -2.59 -2.98 -4 -4.93 -1.42 -2 -2.78 -3.61 -3.08 -3.61 -0.29 0 -1.12 0.59 -1.81 1.37 -3.08 3.27 -3.71 7.28 -1.56 9.81 2.20 2.64 6.05 3.03 10.01 1.03z"/>
  <path d="M254 216.21 c-2.59 -5.27 -2.44 -9.62 0.34 -12.30 2.73 -2.64 7.42 -2.05 9.08 1.17 1.71 3.32 0.24 7.62 -3.66 10.69 -1.37 1.12 -2.73 2 -2.93 2 -0.24 0 -0.73 0.15 -1.12 0.29 -0.49 0.15 -1.03 -0.39 -1.71 -1.86z m4.64 -4.39 c2.05 -2.15 2.49 -3.91 1.22 -5.18 -0.63 -0.63 -1.37 -0.93 -2.05 -0.73 -1.12 0.29 -2.44 1.95 -2.44 3.08 0 1.22 0.98 4.39 1.42 4.39 0.20 0 1.03 -0.73 1.86 -1.56z"/>
 </g>
</svg>